<?xml version="1.0" encoding="UTF-8"?> <svg xmlns="http://www.w3.org/2000/svg" xmlns:xlink="http://www.w3.org/1999/xlink" width="154.955" height="61.557" viewBox="0 0 154.955 61.557"><defs><clipPath id="clip-path"><path id="Path_172975" data-name="Path 172975" d="M204.394,76.567l-2.306-5.549L188.243,65.3l8.109,19.512Z" transform="translate(-188.243 -65.302)" fill="#88fca8"></path></clipPath><clipPath id="clip-path-2"><path id="Path_172977" data-name="Path 172977" d="M845.872,450.954l2.306,5.549,13.845,5.716-8.109-19.512Z" transform="translate(-845.872 -442.707)" fill="#88fca8"></path></clipPath></defs><g id="Group_186517" data-name="Group 186517" transform="translate(0.35)"><path id="Path_172982" data-name="Path 172982" d="M17.678,82.591a5.72,5.72,0,0,1-2.269-.431,3.725,3.725,0,0,1-1.6-1.242,3.271,3.271,0,0,1-.6-1.915H15.8a1.674,1.674,0,0,0,.526,1.173,1.864,1.864,0,0,0,1.3.431,2,2,0,0,0,1.328-.405,1.319,1.319,0,0,0,.483-1.061,1.226,1.226,0,0,0-.328-.88,2.3,2.3,0,0,0-.82-.543,13.56,13.56,0,0,0-1.354-.44,14.507,14.507,0,0,1-1.906-.682,3.339,3.339,0,0,1-1.259-1.018,2.9,2.9,0,0,1-.526-1.82,3.254,3.254,0,0,1,.535-1.863,3.4,3.4,0,0,1,1.5-1.216,5.461,5.461,0,0,1,2.208-.423,4.791,4.791,0,0,1,3.028.906A3.358,3.358,0,0,1,21.8,73.689H19.144a1.38,1.38,0,0,0-.526-1.027,1.983,1.983,0,0,0-1.3-.405,1.677,1.677,0,0,0-1.13.362,1.31,1.31,0,0,0-.423,1.052,1.088,1.088,0,0,0,.319.8,2.434,2.434,0,0,0,.794.518q.474.2,1.337.457a14.049,14.049,0,0,1,1.915.69A3.439,3.439,0,0,1,21.4,77.174a2.876,2.876,0,0,1,.535,1.812,3.408,3.408,0,0,1-.5,1.794,3.532,3.532,0,0,1-1.467,1.32A5,5,0,0,1,17.678,82.591ZM29.41,72.774a3.88,3.88,0,0,1,1.932.474,3.269,3.269,0,0,1,1.32,1.4,4.8,4.8,0,0,1,.474,2.217v5.607H30.721V77.191a2.478,2.478,0,0,0-.569-1.751,2.017,2.017,0,0,0-1.553-.612,2.066,2.066,0,0,0-1.579.612,2.455,2.455,0,0,0-.578,1.751v5.279H24.027V69.7h2.415v4.4a3.149,3.149,0,0,1,1.242-.975A4.114,4.114,0,0,1,29.41,72.774Zm7.246-1a1.472,1.472,0,0,1-1.061-.405,1.416,1.416,0,0,1,0-2.019,1.591,1.591,0,0,1,2.122,0,1.416,1.416,0,0,1,0,2.019A1.472,1.472,0,0,1,36.656,71.774Zm1.19,1.139v9.558H35.431V72.912Zm4.8,1.38a3.668,3.668,0,0,1,1.285-1.1,3.9,3.9,0,0,1,1.872-.44,4.18,4.18,0,0,1,2.217.6,4.249,4.249,0,0,1,1.57,1.717,5.519,5.519,0,0,1,.578,2.579,5.624,5.624,0,0,1-.578,2.6A4.347,4.347,0,0,1,48.017,82a4.092,4.092,0,0,1-2.217.621,3.857,3.857,0,0,1-1.855-.431,3.979,3.979,0,0,1-1.3-1.087v5.918H40.228V72.912h2.415ZM47.7,77.657a3,3,0,0,0-.354-1.492,2.449,2.449,0,0,0-.932-.958,2.493,2.493,0,0,0-1.251-.328,2.413,2.413,0,0,0-1.234.336A2.5,2.5,0,0,0,43,76.19a3.362,3.362,0,0,0,0,3,2.5,2.5,0,0,0,.932.975,2.435,2.435,0,0,0,2.484-.009,2.562,2.562,0,0,0,.932-.983A3.086,3.086,0,0,0,47.7,77.657ZM54.341,74.4a3.324,3.324,0,0,1,2.933-1.622V75.31h-.638a2.015,2.015,0,0,0-2.295,2.4v4.762H51.925V72.912h2.415ZM63,82.626a5.035,5.035,0,0,1-2.484-.612,4.41,4.41,0,0,1-1.734-1.734,5.2,5.2,0,0,1-.63-2.588A5.085,5.085,0,0,1,58.8,75.1a4.5,4.5,0,0,1,1.768-1.734,5.415,5.415,0,0,1,5,0A4.5,4.5,0,0,1,67.341,75.1a5.085,5.085,0,0,1,.647,2.588,4.982,4.982,0,0,1-.664,2.588,4.6,4.6,0,0,1-1.794,1.734A5.218,5.218,0,0,1,63,82.626Zm0-2.1a2.513,2.513,0,0,0,1.234-.319,2.32,2.32,0,0,0,.923-.958,3.227,3.227,0,0,0,.345-1.553,2.877,2.877,0,0,0-.716-2.1,2.354,2.354,0,0,0-1.751-.733A2.3,2.3,0,0,0,61.3,75.6a2.921,2.921,0,0,0-.7,2.1,2.967,2.967,0,0,0,.682,2.1A2.244,2.244,0,0,0,63,80.521Zm6.142-2.83a5.361,5.361,0,0,1,.6-2.6,4.316,4.316,0,0,1,1.674-1.725,4.842,4.842,0,0,1,2.45-.612,4.71,4.71,0,0,1,2.942.889,4.322,4.322,0,0,1,1.561,2.493H75.769a1.905,1.905,0,0,0-.7-.975,2.029,2.029,0,0,0-1.216-.354,1.992,1.992,0,0,0-1.639.751,4.031,4.031,0,0,0,0,4.244,1.992,1.992,0,0,0,1.639.751,1.832,1.832,0,0,0,1.915-1.311h2.605a4.409,4.409,0,0,1-1.57,2.467,4.627,4.627,0,0,1-2.933.914,4.842,4.842,0,0,1-2.45-.612,4.316,4.316,0,0,1-1.674-1.725A5.361,5.361,0,0,1,69.144,77.691Zm17.1,4.779L83,78.4v4.072H80.583V69.7H83v7.264l3.209-4.055h3.14l-4.21,4.8,4.244,4.762Zm13.026-4.986a5.7,5.7,0,0,1-.069.932H92.212a2.376,2.376,0,0,0,.725,1.622,2.234,2.234,0,0,0,1.57.587,1.972,1.972,0,0,0,1.915-1.156h2.605a4.354,4.354,0,0,1-1.587,2.269,4.634,4.634,0,0,1-2.881.889,4.986,4.986,0,0,1-2.476-.612,4.311,4.311,0,0,1-1.708-1.734,5.313,5.313,0,0,1-.612-2.588,5.412,5.412,0,0,1,.6-2.605,4.213,4.213,0,0,1,1.691-1.725A5.429,5.429,0,0,1,97,73.344a4.129,4.129,0,0,1,1.674,1.665A5.038,5.038,0,0,1,99.268,77.484Zm-2.5-.69a1.916,1.916,0,0,0-.673-1.492,2.384,2.384,0,0,0-1.6-.561,2.193,2.193,0,0,0-1.51.543,2.39,2.39,0,0,0-.751,1.51Zm7.212-1.9V79.52a.914.914,0,0,0,.233.7,1.144,1.144,0,0,0,.785.216h1.121v2.036H104.6q-3.054,0-3.054-2.968V74.9h-1.139V72.912h1.139V70.549h2.433v2.364h2.139V74.9Z" transform="translate(-12.148 -68.944)" fill="#0b0757"></path><path id="Path_172983" data-name="Path 172983" d="M26.88,205.4a14,14,0,0,1,1.679-6.883,12.186,12.186,0,0,1,4.588-4.738,12.644,12.644,0,0,1,6.491-1.7,13.2,13.2,0,0,1,7.48,2.07,11.762,11.762,0,0,1,4.532,5.838H48.591a8.971,8.971,0,0,0-3.413-4.141,9.939,9.939,0,0,0-5.54-1.492,10.036,10.036,0,0,0-5.167,1.343,9.328,9.328,0,0,0-3.6,3.861,13.663,13.663,0,0,0,0,11.658,9.354,9.354,0,0,0,3.6,3.842,10.036,10.036,0,0,0,5.167,1.343,10.034,10.034,0,0,0,5.54-1.474,8.888,8.888,0,0,0,3.413-4.085H51.65a11.638,11.638,0,0,1-4.551,5.782,13.313,13.313,0,0,1-7.461,2.052,12.644,12.644,0,0,1-6.491-1.7,12.221,12.221,0,0,1-4.588-4.719A13.893,13.893,0,0,1,26.88,205.4Zm27.642,2.835a11.623,11.623,0,0,1,1.25-5.5,8.95,8.95,0,0,1,3.469-3.656,9.818,9.818,0,0,1,5.017-1.287,9.138,9.138,0,0,1,5.017,1.343,7.816,7.816,0,0,1,3.04,3.432v-4.477h2.611v20.368H72.317V213.94a8.18,8.18,0,0,1-3.078,3.451,9.044,9.044,0,0,1-5.017,1.362,9.638,9.638,0,0,1-4.98-1.306,9.048,9.048,0,0,1-3.469-3.693A11.735,11.735,0,0,1,54.522,208.233Zm17.794.037a8.968,8.968,0,0,0-1.007-4.327,7.187,7.187,0,0,0-2.742-2.872,7.478,7.478,0,0,0-3.824-1.007,7.746,7.746,0,0,0-3.88.97,6.875,6.875,0,0,0-2.7,2.816,9.161,9.161,0,0,0-.989,4.383,9.3,9.3,0,0,0,.989,4.383,6.947,6.947,0,0,0,2.7,2.872,7.63,7.63,0,0,0,3.88.989,7.478,7.478,0,0,0,3.824-1.007,7.187,7.187,0,0,0,2.742-2.872A8.968,8.968,0,0,0,72.317,208.27ZM82.389,201.7a6.381,6.381,0,0,1,2.63-2.947,8.425,8.425,0,0,1,4.346-1.045v2.723h-.709a6.586,6.586,0,0,0-4.551,1.529q-1.716,1.53-1.716,5.111v11.378H79.777V198.086h2.611Zm18.316-3.917a9.162,9.162,0,0,1,5,1.343,7.833,7.833,0,0,1,3.059,3.395v-4.439h2.611v20.89a9.976,9.976,0,0,1-1.212,4.961,8.389,8.389,0,0,1-3.376,3.339,10.15,10.15,0,0,1-4.924,1.175,10.863,10.863,0,0,1-6.51-1.865,7.913,7.913,0,0,1-3.227-5.073H94.7a6.266,6.266,0,0,0,2.555,3.395,8.06,8.06,0,0,0,4.607,1.268,7.385,7.385,0,0,0,3.544-.839,5.993,5.993,0,0,0,2.462-2.481,7.983,7.983,0,0,0,.9-3.88V213.94a8.18,8.18,0,0,1-3.078,3.451,8.975,8.975,0,0,1-4.98,1.362,9.709,9.709,0,0,1-5.017-1.306,9.048,9.048,0,0,1-3.469-3.693,12.779,12.779,0,0,1,0-11.023,8.95,8.95,0,0,1,3.469-3.656A9.818,9.818,0,0,1,100.705,197.788Zm8.058,10.482a8.968,8.968,0,0,0-1.007-4.327,7.187,7.187,0,0,0-2.742-2.872,7.478,7.478,0,0,0-3.824-1.007,7.746,7.746,0,0,0-3.88.97,6.875,6.875,0,0,0-2.7,2.816,9.161,9.161,0,0,0-.989,4.383,9.3,9.3,0,0,0,.989,4.383,6.947,6.947,0,0,0,2.7,2.872,7.63,7.63,0,0,0,3.88.989,7.478,7.478,0,0,0,3.824-1.007,7.187,7.187,0,0,0,2.742-2.872A8.968,8.968,0,0,0,108.763,208.27Zm16.377,10.482a10.376,10.376,0,0,1-5.167-1.287,9.3,9.3,0,0,1-3.619-3.656,11.167,11.167,0,0,1-1.324-5.54,11.043,11.043,0,0,1,1.343-5.54,9.393,9.393,0,0,1,3.656-3.656,11.127,11.127,0,0,1,10.389,0,9.232,9.232,0,0,1,3.656,3.656,12.134,12.134,0,0,1-.019,11.061,9.291,9.291,0,0,1-3.693,3.674A10.692,10.692,0,0,1,125.139,218.753Zm0-2.276a7.813,7.813,0,0,0,3.73-.914,6.975,6.975,0,0,0,2.779-2.761,8.955,8.955,0,0,0,1.063-4.532,9.084,9.084,0,0,0-1.045-4.532,6.857,6.857,0,0,0-2.761-2.761,8.07,8.07,0,0,0-7.461,0,6.74,6.74,0,0,0-2.742,2.761,10.526,10.526,0,0,0,0,9.065,6.773,6.773,0,0,0,2.723,2.761A7.7,7.7,0,0,0,125.139,216.477Z" transform="translate(-26.88 -167.245)" fill="#6734e0" stroke="#6734e0" stroke-width="0.7"></path><g id="Group_186513" data-name="Group 186513" transform="translate(104.01 19.993)"><g id="Group_186509" data-name="Group 186509" transform="translate(6.27 2.175)"><g id="Group_186508" data-name="Group 186508" clip-path="url(#clip-path)"><rect id="Rectangle_61838" data-name="Rectangle 61838" width="17.791" height="20.846" transform="translate(-1.694 0.148) rotate(-5)" fill="#88fca8"></rect></g></g><path id="Path_172976" data-name="Path 172976" d="M0,426.51l14.958-.181,11.879-12.183-4.416-10.628Z" transform="translate(0 -390.077)" fill="#35ed7f"></path><g id="Group_186511" data-name="Group 186511" transform="translate(28.174 14.745)"><g id="Group_186510" data-name="Group 186510" clip-path="url(#clip-path-2)"><rect id="Rectangle_61839" data-name="Rectangle 61839" width="22.371" height="24.197" transform="translate(-6.878 2.837) rotate(-22.414)" fill="#88fca8"></rect></g></g><path id="Path_172978" data-name="Path 172978" d="M740.126,0,725.168.18,713.289,12.363,717.7,22.992Z" transform="translate(-689.531 0.001)" fill="#35ed7f"></path></g></g></svg> 