<?xml version="1.0" encoding="UTF-8"?> <svg xmlns="http://www.w3.org/2000/svg" xmlns:xlink="http://www.w3.org/1999/xlink" width="3289.158" height="783.438" viewBox="0 0 3289.158 783.438"><defs><clipPath id="clip-path"><rect id="Rectangle_61664" data-name="Rectangle 61664" width="495.521" height="414.288" fill="none"></rect></clipPath></defs><g id="Group_186256" data-name="Group 186256" transform="translate(-431 -1042.975)"><g id="Group_186255" data-name="Group 186255"><path id="Path_172204" data-name="Path 172204" d="M80.29,273.813q-18.907,0-34.059-6.475A55.919,55.919,0,0,1,22.274,248.69q-8.806-12.173-9.065-28.749h38.85q.777,11.137,7.9,17.612t19.555,6.475q12.691,0,19.943-6.087a19.8,19.8,0,0,0,7.252-15.928,18.4,18.4,0,0,0-4.921-13.209,34.479,34.479,0,0,0-12.3-8.158,203.586,203.586,0,0,0-20.331-6.6,217.752,217.752,0,0,1-28.619-10.23,50.128,50.128,0,0,1-18.907-15.281q-7.9-10.23-7.9-27.324,0-16.058,8.029-27.972t22.533-18.26q14.5-6.345,33.152-6.345,27.972,0,45.454,13.6t19.3,37.944H102.305a20.716,20.716,0,0,0-7.9-15.411q-7.381-6.087-19.554-6.087-10.619,0-16.964,5.439t-6.346,15.8a16.332,16.332,0,0,0,4.792,12.043,36.541,36.541,0,0,0,11.914,7.77q7.123,2.978,20.073,6.863a210.871,210.871,0,0,1,28.749,10.36,51.63,51.63,0,0,1,19.166,15.54q8.029,10.36,8.029,27.2a51.154,51.154,0,0,1-7.511,26.936q-7.511,12.432-22.015,19.813T80.29,273.813ZM256.41,126.442q16.317,0,29.008,7.122a49.078,49.078,0,0,1,19.814,20.979q7.122,13.856,7.122,33.282V272h-36.26V192.746q0-17.094-8.547-26.289t-23.31-9.194q-15.022,0-23.7,9.194t-8.677,26.289V272H175.6V80.34h36.26v66.045a47.269,47.269,0,0,1,18.648-14.633A61.755,61.755,0,0,1,256.41,126.442ZM365.19,111.42a22.094,22.094,0,0,1-15.928-6.086,20.138,20.138,0,0,1-6.346-15.152,20.138,20.138,0,0,1,6.346-15.151,23.886,23.886,0,0,1,31.857,0,20.138,20.138,0,0,1,6.345,15.151,20.138,20.138,0,0,1-6.345,15.152A22.094,22.094,0,0,1,365.19,111.42Zm17.871,17.094V272H346.8V128.514Zm72,20.72a55.061,55.061,0,0,1,19.3-16.447q12.3-6.6,28.1-6.6a62.748,62.748,0,0,1,33.281,9.065,63.779,63.779,0,0,1,23.569,25.77q8.676,16.706,8.676,38.721t-8.676,38.98q-8.677,16.964-23.569,26.288a61.433,61.433,0,0,1-33.281,9.324q-15.8,0-27.843-6.475a59.73,59.73,0,0,1-19.554-16.317v88.837H418.8V128.514h36.26Zm75.887,50.5q0-12.95-5.31-22.4a36.761,36.761,0,0,0-13.986-14.375,37.428,37.428,0,0,0-18.777-4.921,36.216,36.216,0,0,0-18.518,5.05,37.486,37.486,0,0,0-13.986,14.633q-5.309,9.583-5.309,22.533t5.309,22.533a37.486,37.486,0,0,0,13.986,14.633,36.55,36.55,0,0,0,37.3-.129,38.452,38.452,0,0,0,13.986-14.763Q530.95,212.948,530.95,199.739Zm99.715-48.951a49.891,49.891,0,0,1,44.03-24.346v38.073h-9.583q-17.094,0-25.771,8.029t-8.677,27.972V272H594.4V128.514h36.26ZM760.683,274.331q-20.72,0-37.3-9.194a66.207,66.207,0,0,1-26.029-26.03q-9.453-16.835-9.453-38.85t9.712-38.85a67.493,67.493,0,0,1,26.547-26.03,81.294,81.294,0,0,1,75.11,0,67.493,67.493,0,0,1,26.547,26.03q9.712,16.835,9.712,38.85t-9.971,38.85a69.05,69.05,0,0,1-26.936,26.03Q781.662,274.331,760.683,274.331Zm0-31.6a37.72,37.72,0,0,0,18.518-4.792,34.822,34.822,0,0,0,13.857-14.374q5.18-9.583,5.18-23.31,0-20.461-10.749-31.468A35.333,35.333,0,0,0,761.2,157.781a34.5,34.5,0,0,0-26.03,11.007q-10.489,11.007-10.49,31.468t10.231,31.469Q745.143,242.733,760.683,242.733Zm92.2-42.476q0-22.274,9.065-38.979a64.794,64.794,0,0,1,25.123-25.9q16.058-9.195,36.778-9.195,26.677,0,44.159,13.339t23.44,37.425H952.343a28.6,28.6,0,0,0-10.49-14.633q-7.381-5.31-18.26-5.31-15.54,0-24.6,11.267t-9.065,31.986q0,20.461,9.065,31.728t24.6,11.267q22.015,0,28.749-19.684h39.109q-5.957,23.31-23.569,37.037t-44.03,13.727q-20.72,0-36.778-9.194a64.794,64.794,0,0,1-25.123-25.9Q852.887,222.531,852.887,200.257ZM1109.556,272l-48.692-61.124V272H1024.6V80.34h36.26V189.379l48.174-60.865h47.138l-63.2,72L1156.694,272ZM1305.1,197.149a85.572,85.572,0,0,1-1.036,13.986h-104.9q1.3,15.54,10.878,24.346t23.569,8.806q20.2,0,28.749-17.353h39.109a65.359,65.359,0,0,1-23.828,34.058q-17.612,13.339-43.253,13.339-20.72,0-37.167-9.194a64.717,64.717,0,0,1-25.641-26.03q-9.194-16.835-9.194-38.85,0-22.274,9.065-39.109a63.251,63.251,0,0,1,25.382-25.9q16.317-9.065,37.555-9.065,20.461,0,36.649,8.806a61.976,61.976,0,0,1,25.123,24.993Q1305.1,176.17,1305.1,197.149Zm-37.555-10.36q-.259-13.986-10.1-22.4t-24.087-8.418q-13.468,0-22.662,8.159t-11.266,22.663Zm108.262-28.49v69.412q0,7.252,3.5,10.49t11.785,3.238h16.835V272h-22.792q-45.843,0-45.843-44.548V158.3h-17.094V128.514h17.094V93.031h36.519v35.483h32.116V158.3Z" transform="translate(1107.258 974.031)" fill="#0b0757"></path><path id="Path_172203" data-name="Path 172203" d="M256.48,196.56v32.48H84V375.2H229.6v32.48H84V588H44.8V196.56Zm312.48,85.68V588h-39.2V534.24a93.962,93.962,0,0,1-41.44,43.68q-28,15.12-62.72,15.12-54.88,0-89.6-33.88t-34.72-98.28V282.24h38.64V456.4q0,49.84,24.92,76.16t68.04,26.32q44.24,0,70.56-28t26.32-82.32V282.24Zm112-108.64V588h-39.2V173.6ZM873.6,315.28H802.48V588h-39.2V315.28H720.72V282.24h42.56V260.96q0-49.84,25.48-73.36t82.6-23.52v33.6q-38.08,0-53.48,14.56t-15.4,48.72v21.28H873.6ZM938,224.56a27.5,27.5,0,0,1-20.16-8.4,28.153,28.153,0,0,1-8.4-20.72q0-12.32,8.4-20.44a29.086,29.086,0,0,1,40.32,0q8.4,8.12,8.4,20.44a28.153,28.153,0,0,1-8.4,20.72A27.494,27.494,0,0,1,938,224.56Zm19.6,57.68V588H918.4V282.24ZM1069.04,173.6V588h-39.2V173.6Zm111.44,0V588h-39.2V173.6Zm436.24,103.04q53.76,0,87.64,33.88t33.88,98.28V588H1699.6V413.28q0-49.84-24.08-76.16T1610,310.8q-43.12,0-68.88,28.56t-25.76,82.88V588h-38.64V413.28q0-49.84-24.08-76.16t-66.08-26.32q-43.12,0-68.88,28.56t-25.76,82.88V588h-39.2V282.24h39.2v52.64q14.56-28.56,41.44-43.4t59.92-14.84q39.76,0,69.72,19.04t43.4,56q12.32-36.4,42.28-55.72T1616.72,276.64Zm468.16,142.8q0,20.16-1.12,30.8H1830.08q1.68,34.72,16.8,59.36t39.76,37.24a116.349,116.349,0,0,0,53.76,12.6q38.08,0,64.12-18.48t34.44-49.84h41.44q-11.2,44.8-47.88,73.08t-92.12,28.28q-43.12,0-77.28-19.32t-53.48-54.88q-19.32-35.56-19.32-83.16t19.04-83.44q19.04-35.84,53.2-54.88t77.84-19.04q43.68,0,76.44,19.04t50.4,51.24Q2084.88,380.24,2084.88,419.44Zm-39.76-1.12q.56-34.16-13.72-58.24a92.592,92.592,0,0,0-38.92-36.4,118.514,118.514,0,0,0-53.76-12.32q-43.68,0-74.48,28t-34.16,78.96Zm238-141.68q54.88,0,89.6,33.88t34.72,98.28V588H2368.8V413.28q0-49.84-24.92-76.16t-68.04-26.32q-44.24,0-70.56,28t-26.32,82.32V588h-39.2V282.24h39.2v52.08a100.054,100.054,0,0,1,42-42.84Q2248.4,276.64,2283.12,276.64Zm245.28,38.64V505.12q0,28,10.64,38.64t37.52,10.64h35.84V588h-42q-41.44,0-61.6-19.32t-20.16-63.56V315.28h-42.56V282.24h42.56V205.52h39.76v76.72h84v33.04Z" transform="translate(1106.758 1223.709)" fill="#6734e0" stroke="#6734e0" stroke-width="2"></path><g id="Group_186120" data-name="Group 186120" transform="translate(926.521 1826.413) rotate(180)"><g id="Group_186119" data-name="Group 186119" clip-path="url(#clip-path)"><path id="Path_172125" data-name="Path 172125" d="M123.881,63.39l123.88,71.523L123.88,206.435,0,277.957V11.148a11.131,11.131,0,0,1,16.7-9.64Z" transform="translate(0 0)" fill="#abffc7" fill-rule="evenodd"></path><path id="Path_172126" data-name="Path 172126" d="M247.761,314.478,371.641,386l123.88,71.522-123.88,71.522-102.18,58.993a43.4,43.4,0,0,1-43.4,0L123.879,529.045,0,457.523,123.88,386Z" transform="translate(0 -179.565)" fill="#7f6bf6" fill-rule="evenodd"></path><path id="Path_172127" data-name="Path 172127" d="M701.4,63.39l-123.88,71.523L701.4,206.435l123.88,71.522V11.148a11.131,11.131,0,0,0-16.7-9.64Z" transform="translate(-329.76 0)" fill="#5a3ce8" fill-rule="evenodd"></path></g></g></g></g></svg> 